<svg xmlns="http://www.w3.org/2000/svg" viewBox="0 0 383.09 302.45"><path d="M106,456.45a27.07,27.07,0,0,0,1.4-3.24,37.25,37.25,0,0,1,35.18-27.4c14-.2,27.94-.05,41.91-.06h4.21c6.73-18.48,13.42-36.79,20-55.15.31-.87-.45-2.5-1.21-3.3A58.22,58.22,0,0,1,191,331.35c-2.67-28.57,19.09-56.46,47.46-60.53,31.85-4.57,59.79,15.06,65.45,46.66,3.39,18.89-2.24,35.47-15.4,49.44-1.18,1.25-2.31,2.1-1.47,4.35q15.82,42.86,31.41,85.8a11.18,11.18,0,0,0,.55,1.07c.5-1.21.93-2.13,1.27-3.08q15.19-41.51,30.41-83c.89-2.4.28-3.7-1.39-5.42A56.63,56.63,0,0,1,338.56,303c10-21.39,32.11-34.78,55.73-32.71s40.51,14.46,49,36.52,3.82,42.15-12,59.57c-2,2.17-2.33,3.66-1.34,6.36q28.5,77.73,56.8,155.54c7.44,20.41-3.59,40.14-24.51,43.85a28.89,28.89,0,0,1-4.84.36q-16.1,0-32.19,0c-5.5,0-7.79-2-8.9-7.47,1.15-5.64,3.39-7.48,9.28-7.49,9.1,0,18.21,0,27.31,0a48.75,48.75,0,0,0,7.46-.26c9.29-1.46,17-11.47,12.29-24.22-17.93-48.41-35.47-97-53.16-145.45-1.14-3.13-2.34-6.24-3.58-9.56-17.29,8.07-34.34,8-51.34.05a14,14,0,0,0-.76,1.47q-18,49.43-36,98.88a7.93,7.93,0,0,0,.28,4.94q8,22.49,16.3,44.89c2.29,6.22,3.38,12.55,1.78,19-.85,3.42-2.26,6.71-3.43,10.08a7,7,0,0,0,.84.12l10.85,0c6.16,0,8.11,1.51,9.79,7.48-1.71,6.11-3.57,7.49-10.13,7.49H145.5c-19.45,0-33-10.14-38.55-28.88a10.44,10.44,0,0,0-1-1.81Zm15,42.32q0,17.38,0,34.78c0,14.44,9.44,23.93,23.8,23.94q34.6,0,69.21,0c14.15,0,23.73-9.53,23.74-23.62q0-34.78,0-69.58c0-13.93-9.55-23.53-23.42-23.55q-35-.06-70,0c-13.67,0-23.31,9.62-23.37,23.24C120.94,475.57,121,487.17,121,498.77Zm83.67-73h9.48c22.42.09,38.56,16.27,38.59,38.77q0,34.8,0,69.59a23.54,23.54,0,0,1-.55,6.68c-1.69,5.62-3.75,11.14-5.66,16.71H312.9c14.88,0,22.33-10.59,17.26-24.51q-23.51-64.53-47-129C280,395.3,276.8,386.68,273.6,378c-17.32,8.09-34.37,8-51.4.06-.39.85-.68,1.4-.89,2C215.81,395.09,210.33,410.15,204.64,425.75ZM348.22,327a41.9,41.9,0,0,0,42.11,42c22.87.12,41.9-18.89,41.93-41.9a42,42,0,0,0-84-.1Zm-100.8,42c23.06.38,42.23-18.38,42.55-41.64.32-22.65-18.43-42-41.13-42.36a42.23,42.23,0,0,0-43.09,41.87C205.58,349.8,224.21,368.64,247.42,369Z" transform="translate(-106 -270.05)" style="fill:#020202"/><path d="M364.23,565c-1.68-6-3.63-7.47-9.79-7.48l-10.85,0a7,7,0,0,1-.84-.12c1.17-3.37,2.58-6.66,3.43-10.08,1.6-6.5.51-12.83-1.78-19q-8.26-22.41-16.3-44.89a7.93,7.93,0,0,1-.28-4.94q17.88-49.48,36-98.88a14,14,0,0,1,.76-1.47c17,7.95,34.05,8,51.34-.05,1.24,3.32,2.44,6.43,3.58,9.56,17.69,48.49,35.23,97,53.16,145.45,4.72,12.75-3,22.76-12.29,24.22a48.75,48.75,0,0,1-7.46.26c-9.1,0-18.21,0-27.31,0-5.89,0-8.13,1.85-9.28,7.49H397.9c-1.5-5.2-4-7.55-7.89-7.46s-6.34,2.55-7.39,7.47Z" transform="translate(-106 -270.05)" style="fill:#33d5f3"/><path d="M382.62,565c1.05-4.92,3.48-7.38,7.39-7.47s6.39,2.26,7.89,7.46c-.7,3.34-2.1,6.11-5.68,7.19C387.66,573.54,383.81,570.67,382.62,565Z" transform="translate(-106 -270.05)" style="fill:#020202"/><path d="M121,498.77c0-11.6,0-23.2,0-34.79.06-13.62,9.7-23.22,23.37-23.24q35-.06,70,0c13.87,0,23.41,9.62,23.42,23.55q0,34.79,0,69.58c0,14.09-9.59,23.61-23.74,23.62q-34.61,0-69.21,0c-14.36,0-23.78-9.5-23.8-23.94Q121,516.17,121,498.77ZM154.51,467a7.47,7.47,0,1,0,7.61,7.5A7.54,7.54,0,0,0,154.51,467Zm57,7.47a7.47,7.47,0,1,0-7.66,7.46A7.55,7.55,0,0,0,211.53,474.42Zm-32.26,32.16a7.47,7.47,0,1,0-7.38-7.74A7.54,7.54,0,0,0,179.27,506.58Zm-17.15,17.28a7.47,7.47,0,1,0-7.69,7.42A7.55,7.55,0,0,0,162.12,523.86Zm41.9,7.42a7.47,7.47,0,1,0-7.42-7.69A7.53,7.53,0,0,0,204,531.28Z" transform="translate(-106 -270.05)" style="fill:#fefefe"/><path d="M204.64,425.75c5.69-15.6,11.17-30.66,16.67-45.72.21-.58.5-1.13.89-2,17,7.93,34.08,8,51.4-.06,3.2,8.69,6.39,17.31,9.53,25.94q23.53,64.51,47,129.05c5.07,13.92-2.38,24.51-17.26,24.51H246.48c1.91-5.57,4-11.09,5.66-16.71a23.54,23.54,0,0,0,.55-6.68q.06-34.78,0-69.59c0-22.5-16.17-38.68-38.59-38.77Z" transform="translate(-106 -270.05)" style="fill:#fd7a78"/><path d="M348.22,327a42,42,0,0,1,84,.1c0,23-19.06,42-41.93,41.9A41.9,41.9,0,0,1,348.22,327Z" transform="translate(-106 -270.05)" style="fill:#65def5"/><path d="M247.42,369c-23.21-.38-41.84-19.22-41.67-42.13A42.23,42.23,0,0,1,248.84,285c22.7.4,41.45,19.71,41.13,42.36C289.65,350.64,270.48,369.4,247.42,369Z" transform="translate(-106 -270.05)" style="fill:#fd7a78"/><path d="M154.51,467a7.47,7.47,0,1,1-7.32,7.42A7.53,7.53,0,0,1,154.51,467Z" transform="translate(-106 -270.05)" style="fill:#020202"/><path d="M211.53,474.42a7.47,7.47,0,1,1-7.28-7.48A7.54,7.54,0,0,1,211.53,474.42Z" transform="translate(-106 -270.05)" style="fill:#020202"/><path d="M179.27,506.58a7.47,7.47,0,1,1,7.55-7.19A7.55,7.55,0,0,1,179.27,506.58Z" transform="translate(-106 -270.05)" style="fill:#020202"/><path d="M162.12,523.86a7.47,7.47,0,1,1-7.24-7.51A7.53,7.53,0,0,1,162.12,523.86Z" transform="translate(-106 -270.05)" style="fill:#020202"/><path d="M204,531.28a7.47,7.47,0,1,1,7.51-7.6A7.53,7.53,0,0,1,204,531.28Z" transform="translate(-106 -270.05)" style="fill:#020202"/></svg>